<?xml version="1.0" encoding="utf-8" standalone="no"?>
<!DOCTYPE svg PUBLIC "-//W3C//DTD SVG 1.1//EN"
  "http://www.w3.org/Graphics/SVG/1.1/DTD/svg11.dtd">
<svg xmlns:xlink="http://www.w3.org/1999/xlink" width="864pt" height="576pt" viewBox="0 0 864 576" xmlns="http://www.w3.org/2000/svg" version="1.1">
 <metadata>
  <rdf:RDF xmlns:dc="http://purl.org/dc/elements/1.1/" xmlns:cc="http://creativecommons.org/ns#" xmlns:rdf="http://www.w3.org/1999/02/22-rdf-syntax-ns#">
   <cc:Work>
    <dc:type rdf:resource="http://purl.org/dc/dcmitype/StillImage"/>
    <dc:date>2024-08-20T18:42:00.369530</dc:date>
    <dc:format>image/svg+xml</dc:format>
    <dc:creator>
     <cc:Agent>
      <dc:title>Matplotlib v3.8.2, https://matplotlib.org/</dc:title>
     </cc:Agent>
    </dc:creator>
   </cc:Work>
  </rdf:RDF>
 </metadata>
 <defs>
  <style type="text/css">*{stroke-linejoin: round; stroke-linecap: butt}</style>
 </defs>
 <g id="figure_1">
  <g id="patch_1">
   <path d="M 0 576 
L 864 576 
L 864 0 
L 0 0 
z
" style="fill: #ffffff"/>
  </g>
  <g id="axes_1">
   <g id="patch_2">
    <path d="M 108 512.64 
L 777.6 512.64 
L 777.6 69.12 
L 108 69.12 
z
" style="fill: #ffffff"/>
   </g>
   <g id="matplotlib.axis_1">
    <g id="xtick_1">
     <g id="line2d_1">
      <defs>
       <path id="m1be553d384" d="M 0 0 
L 0 3.5 
" style="stroke: #000000; stroke-width: 0.8"/>
      </defs>
      <g>
       <use xlink:href="#m1be553d384" x="138.436364" y="512.64" style="stroke: #000000; stroke-width: 0.8"/>
      </g>
     </g>
     <g id="text_1">
      <!-- Jan-2022 -->
      <g transform="translate(113.298707 529.608438) scale(0.14 -0.14)">
       <defs>
        <path id="MinionPro-Regular-4a" d="M 1939 4160 
L 282 4160 
L 282 3981 
C 800 3942 851 3898 851 3360 
L 851 1178 
C 851 640 838 269 781 -38 
C 717 -403 525 -698 166 -877 
L 250 -1056 
C 410 -1005 627 -883 845 -685 
C 1267 -294 1395 147 1395 966 
L 1395 3360 
C 1395 3898 1446 3942 1939 3981 
L 1939 4160 
z
" transform="scale(0.015625)"/>
        <path id="MinionPro-Regular-61" d="M 2771 250 
L 2707 416 
C 2643 378 2554 346 2477 346 
C 2368 346 2253 442 2253 730 
L 2253 1920 
C 2253 2253 2189 2515 1965 2701 
C 1824 2816 1632 2874 1440 2874 
C 1075 2803 659 2554 480 2426 
C 358 2336 275 2266 275 2170 
C 275 2022 442 1894 557 1894 
C 646 1894 717 1939 742 2048 
C 794 2240 851 2381 934 2464 
C 998 2541 1094 2592 1222 2592 
C 1542 2592 1760 2330 1760 1869 
L 1760 1754 
C 1619 1638 1152 1466 768 1338 
C 416 1216 250 1018 250 704 
C 250 301 563 -77 1018 -77 
C 1210 -77 1517 160 1773 333 
C 1805 224 1843 134 1926 45 
C 1997 -19 2131 -77 2227 -77 
L 2771 250 
z
M 1760 538 
C 1638 422 1414 314 1248 307 
C 1050 307 794 467 794 800 
C 794 1030 934 1152 1184 1267 
C 1318 1331 1626 1466 1760 1536 
L 1760 538 
z
" transform="scale(0.015625)"/>
        <path id="MinionPro-Regular-6e" d="M 3347 0 
L 3347 166 
C 2976 205 2944 230 2944 666 
L 2944 1901 
C 2944 2522 2624 2874 2118 2874 
C 1933 2874 1766 2797 1587 2682 
C 1427 2573 1286 2477 1158 2381 
L 1158 2893 
C 877 2765 576 2688 269 2630 
L 269 2483 
C 614 2419 653 2400 653 1990 
L 653 666 
C 653 243 621 211 186 166 
L 186 0 
L 1574 0 
L 1574 166 
C 1197 205 1158 230 1158 666 
L 1158 2170 
C 1350 2336 1600 2496 1856 2496 
C 2285 2496 2438 2208 2438 1766 
L 2438 698 
C 2438 256 2394 205 2016 166 
L 2016 0 
L 3347 0 
z
" transform="scale(0.015625)"/>
        <path id="MinionPro-Regular-2d" d="M 1920 1619 
L 454 1619 
L 365 1267 
L 1824 1267 
L 1920 1619 
z
" transform="scale(0.015625)"/>
        <path id="MinionPro-Regular-32" d="M 2637 896 
C 2445 493 2362 467 2016 467 
L 819 467 
L 1728 1421 
C 2317 2048 2573 2426 2573 2982 
C 2573 3654 2061 4064 1498 4064 
C 1126 4064 826 3898 634 3686 
L 269 3168 
L 410 3040 
C 576 3290 845 3635 1280 3635 
C 1754 3635 2035 3322 2035 2784 
C 2035 2234 1632 1709 1235 1235 
C 915 864 557 499 198 147 
L 198 0 
L 2592 0 
C 2669 288 2733 570 2816 838 
L 2637 896 
z
" transform="scale(0.015625)"/>
        <path id="MinionPro-Regular-30" d="M 1536 4064 
C 576 4064 224 2925 224 1990 
C 224 979 570 -77 1536 -77 
C 2496 -77 2835 1062 2835 1997 
C 2835 2982 2496 4064 1542 4064 
L 1536 4064 
z
M 1530 3853 
C 2106 3853 2266 2906 2266 1997 
C 2266 1101 2112 141 1536 141 
C 979 141 794 1107 794 2003 
C 794 2893 947 3853 1523 3853 
L 1530 3853 
z
" transform="scale(0.015625)"/>
       </defs>
       <use xlink:href="#MinionPro-Regular-4a"/>
       <use xlink:href="#MinionPro-Regular-61" x="32.899994"/>
       <use xlink:href="#MinionPro-Regular-6e" x="76.799988"/>
       <use xlink:href="#MinionPro-Regular-2d" x="131.499985"/>
       <use xlink:href="#MinionPro-Regular-32" x="167.099976"/>
       <use xlink:href="#MinionPro-Regular-30" x="215.09996"/>
       <use xlink:href="#MinionPro-Regular-32" x="263.099945"/>
       <use xlink:href="#MinionPro-Regular-32" x="311.09993"/>
      </g>
     </g>
    </g>
    <g id="xtick_2">
     <g id="line2d_2">
      <g>
       <use xlink:href="#m1be553d384" x="290.618182" y="512.64" style="stroke: #000000; stroke-width: 0.8"/>
      </g>
     </g>
     <g id="text_2">
      <!-- Jan-2027 -->
      <g transform="translate(265.480526 529.608438) scale(0.14 -0.14)">
       <defs>
        <path id="MinionPro-Regular-37" d="M 2861 3987 
L 416 3987 
C 390 3712 358 3392 301 3040 
L 486 3040 
C 640 3462 678 3520 1101 3520 
L 2483 3520 
C 1978 2406 1254 1088 582 -6 
L 627 -77 
L 1101 -13 
C 1715 1306 2310 2611 2912 3910 
L 2861 3987 
z
" transform="scale(0.015625)"/>
       </defs>
       <use xlink:href="#MinionPro-Regular-4a"/>
       <use xlink:href="#MinionPro-Regular-61" x="32.899994"/>
       <use xlink:href="#MinionPro-Regular-6e" x="76.799988"/>
       <use xlink:href="#MinionPro-Regular-2d" x="131.499985"/>
       <use xlink:href="#MinionPro-Regular-32" x="167.099976"/>
       <use xlink:href="#MinionPro-Regular-30" x="215.09996"/>
       <use xlink:href="#MinionPro-Regular-32" x="263.099945"/>
       <use xlink:href="#MinionPro-Regular-37" x="311.09993"/>
      </g>
     </g>
    </g>
    <g id="xtick_3">
     <g id="line2d_3">
      <g>
       <use xlink:href="#m1be553d384" x="442.8" y="512.64" style="stroke: #000000; stroke-width: 0.8"/>
      </g>
     </g>
     <g id="text_3">
      <!-- Jan-2032 -->
      <g transform="translate(417.662344 529.608438) scale(0.14 -0.14)">
       <defs>
        <path id="MinionPro-Regular-33" d="M 1824 2419 
C 2010 2547 2163 2662 2259 2765 
C 2381 2886 2458 3034 2458 3219 
C 2458 3706 2080 4064 1504 4064 
L 1498 4064 
C 1165 4064 870 3904 691 3706 
L 410 3302 
L 544 3174 
C 704 3411 960 3680 1312 3680 
C 1651 3680 1920 3475 1920 3078 
C 1920 2605 1485 2355 896 2170 
L 941 1984 
C 1043 2016 1197 2054 1350 2054 
C 1715 2054 2163 1818 2163 1229 
C 2163 595 1843 256 1389 256 
C 1024 256 762 435 595 582 
C 544 627 493 621 442 582 
C 384 538 301 454 294 371 
C 282 294 307 224 397 141 
C 480 64 742 -77 1037 -77 
C 1498 -77 2714 397 2714 1434 
C 2714 1901 2387 2298 1824 2406 
L 1824 2419 
z
" transform="scale(0.015625)"/>
       </defs>
       <use xlink:href="#MinionPro-Regular-4a"/>
       <use xlink:href="#MinionPro-Regular-61" x="32.899994"/>
       <use xlink:href="#MinionPro-Regular-6e" x="76.799988"/>
       <use xlink:href="#MinionPro-Regular-2d" x="131.499985"/>
       <use xlink:href="#MinionPro-Regular-32" x="167.099976"/>
       <use xlink:href="#MinionPro-Regular-30" x="215.09996"/>
       <use xlink:href="#MinionPro-Regular-33" x="263.099945"/>
       <use xlink:href="#MinionPro-Regular-32" x="311.09993"/>
      </g>
     </g>
    </g>
    <g id="xtick_4">
     <g id="line2d_4">
      <g>
       <use xlink:href="#m1be553d384" x="594.981818" y="512.64" style="stroke: #000000; stroke-width: 0.8"/>
      </g>
     </g>
     <g id="text_4">
      <!-- Jan-2037 -->
      <g transform="translate(569.844162 529.608438) scale(0.14 -0.14)">
       <use xlink:href="#MinionPro-Regular-4a"/>
       <use xlink:href="#MinionPro-Regular-61" x="32.899994"/>
       <use xlink:href="#MinionPro-Regular-6e" x="76.799988"/>
       <use xlink:href="#MinionPro-Regular-2d" x="131.499985"/>
       <use xlink:href="#MinionPro-Regular-32" x="167.099976"/>
       <use xlink:href="#MinionPro-Regular-30" x="215.09996"/>
       <use xlink:href="#MinionPro-Regular-33" x="263.099945"/>
       <use xlink:href="#MinionPro-Regular-37" x="311.09993"/>
      </g>
     </g>
    </g>
    <g id="xtick_5">
     <g id="line2d_5">
      <g>
       <use xlink:href="#m1be553d384" x="747.163636" y="512.64" style="stroke: #000000; stroke-width: 0.8"/>
      </g>
     </g>
     <g id="text_5">
      <!-- Jan-2042 -->
      <g transform="translate(722.02598 529.608438) scale(0.14 -0.14)">
       <defs>
        <path id="MinionPro-Regular-34" d="M 2918 1139 
L 2918 1440 
L 2304 1440 
L 2304 4045 
L 2048 4045 
C 1389 3174 736 2227 128 1318 
L 128 1139 
L 1792 1139 
L 1792 678 
C 1792 256 1766 218 1210 173 
L 1210 0 
L 2848 0 
L 2848 173 
C 2330 218 2304 250 2304 678 
L 2304 1139 
L 2918 1139 
z
M 1792 1440 
L 531 1440 
C 954 2150 1370 2758 1779 3334 
L 1792 3334 
L 1792 1440 
z
" transform="scale(0.015625)"/>
       </defs>
       <use xlink:href="#MinionPro-Regular-4a"/>
       <use xlink:href="#MinionPro-Regular-61" x="32.899994"/>
       <use xlink:href="#MinionPro-Regular-6e" x="76.799988"/>
       <use xlink:href="#MinionPro-Regular-2d" x="131.499985"/>
       <use xlink:href="#MinionPro-Regular-32" x="167.099976"/>
       <use xlink:href="#MinionPro-Regular-30" x="215.09996"/>
       <use xlink:href="#MinionPro-Regular-34" x="263.099945"/>
       <use xlink:href="#MinionPro-Regular-32" x="311.09993"/>
      </g>
     </g>
    </g>
    <g id="text_6">
     <!-- Months -->
     <g transform="translate(417.5675 548.360937) scale(0.16 -0.16)">
      <defs>
       <path id="MinionPro-Regular-4d" d="M 5510 0 
L 5510 179 
C 4954 230 4934 262 4915 941 
L 4851 3258 
C 4832 3917 4877 3930 5440 3981 
L 5440 4160 
L 4352 4160 
L 2874 960 
L 1414 4160 
L 365 4160 
L 365 3981 
C 947 3923 979 3898 922 3066 
L 832 1734 
C 781 1069 742 787 710 563 
C 666 294 538 224 166 179 
L 166 0 
L 1658 0 
L 1658 179 
C 1235 224 1082 269 1069 576 
C 1062 832 1062 1114 1088 1638 
L 1184 3462 
L 1197 3462 
L 2630 45 
L 2758 45 
L 4320 3552 
L 4346 3552 
L 4365 941 
C 4371 262 4346 230 3827 179 
L 3827 0 
L 5510 0 
z
" transform="scale(0.015625)"/>
       <path id="MinionPro-Regular-6f" d="M 1638 2874 
C 1056 2874 237 2394 237 1338 
C 237 627 762 -77 1638 -77 
C 2272 -77 3027 416 3027 1446 
C 3027 2240 2432 2874 1645 2874 
L 1638 2874 
z
M 1574 2662 
C 2131 2662 2432 2054 2432 1306 
C 2432 429 2106 134 1709 134 
C 1184 134 832 736 832 1542 
C 832 2266 1178 2662 1568 2662 
L 1574 2662 
z
" transform="scale(0.015625)"/>
       <path id="MinionPro-Regular-74" d="M 1907 230 
L 1850 397 
C 1760 352 1613 288 1453 288 
C 1293 288 1082 384 1082 902 
L 1082 2547 
L 1766 2547 
C 1843 2592 1862 2733 1805 2797 
L 1082 2797 
L 1082 3674 
L 992 3686 
L 576 3264 
L 576 2797 
L 282 2797 
L 109 2611 
L 134 2547 
L 576 2547 
L 576 685 
C 576 179 800 -77 1203 -77 
C 1261 -77 1363 -51 1472 6 
L 1907 230 
z
" transform="scale(0.015625)"/>
       <path id="MinionPro-Regular-68" d="M 3283 0 
L 3283 166 
C 2906 198 2861 237 2861 659 
L 2861 1779 
C 2861 2547 2496 2880 1978 2874 
C 1632 2874 1286 2637 1062 2406 
L 1062 4557 
C 813 4480 429 4378 122 4333 
L 122 4186 
C 544 4147 557 4115 557 3712 
L 557 659 
C 557 237 506 198 122 166 
L 115 0 
L 1472 0 
L 1472 166 
C 1094 205 1062 250 1062 659 
L 1062 2182 
C 1242 2387 1485 2509 1728 2509 
C 2157 2509 2355 2246 2355 1722 
L 2355 659 
C 2355 243 2304 205 1933 166 
L 1933 0 
L 3283 0 
z
" transform="scale(0.015625)"/>
       <path id="MinionPro-Regular-73" d="M 2048 2080 
C 2029 2240 1958 2618 1907 2765 
C 1773 2816 1600 2880 1338 2874 
C 749 2874 365 2496 365 2048 
C 365 1555 781 1344 1165 1165 
C 1485 1018 1670 864 1670 582 
C 1670 314 1453 134 1216 134 
C 832 134 544 506 429 928 
L 262 896 
C 262 666 320 230 365 141 
C 480 45 774 -77 1101 -77 
C 1613 -77 2157 224 2157 806 
C 2157 1248 1830 1478 1350 1677 
C 1062 1798 806 1952 806 2234 
C 806 2483 979 2675 1222 2675 
C 1536 2675 1760 2419 1882 2042 
L 2048 2080 
z
" transform="scale(0.015625)"/>
      </defs>
      <use xlink:href="#MinionPro-Regular-4d"/>
      <use xlink:href="#MinionPro-Regular-6f" x="89.099991"/>
      <use xlink:href="#MinionPro-Regular-6e" x="140.099976"/>
      <use xlink:href="#MinionPro-Regular-74" x="194.799973"/>
      <use xlink:href="#MinionPro-Regular-68" x="225.299957"/>
      <use xlink:href="#MinionPro-Regular-73" x="278.699951"/>
     </g>
    </g>
   </g>
   <g id="matplotlib.axis_2">
    <g id="ytick_1">
     <g id="line2d_6">
      <defs>
       <path id="m317d2c74ac" d="M 0 0 
L -3.5 0 
" style="stroke: #000000; stroke-width: 0.8"/>
      </defs>
      <g>
       <use xlink:href="#m317d2c74ac" x="108" y="492.48" style="stroke: #000000; stroke-width: 0.8"/>
      </g>
     </g>
     <g id="text_7">
      <!-- 590 -->
      <g transform="translate(83.72 496.752187) scale(0.12 -0.12)">
       <defs>
        <path id="MinionPro-Regular-35" d="M 973 3520 
L 2464 3520 
L 2630 3936 
L 2592 3987 
L 768 3987 
L 518 2035 
C 666 2093 909 2163 1178 2163 
C 1875 2163 2221 1760 2221 1197 
C 2221 717 1952 250 1408 250 
C 1018 250 755 454 621 576 
C 557 627 506 621 448 576 
C 378 512 320 429 314 365 
C 301 288 333 237 416 147 
C 512 58 781 -77 1075 -77 
C 1414 -70 1843 96 2189 378 
C 2579 698 2758 1062 2758 1446 
C 2758 1971 2342 2528 1523 2528 
C 1350 2528 1050 2426 806 2336 
L 973 3520 
z
" transform="scale(0.015625)"/>
        <path id="MinionPro-Regular-39" d="M 1549 4064 
C 723 4064 243 3315 243 2701 
C 243 2029 710 1530 1389 1530 
C 1510 1530 1632 1555 1773 1632 
L 2202 1862 
C 1990 890 1293 250 378 96 
L 410 -96 
C 570 -96 960 -32 1306 109 
C 2170 454 2816 1286 2816 2464 
C 2816 3334 2349 4064 1555 4064 
L 1549 4064 
z
M 1466 3853 
C 2086 3853 2253 3059 2253 2496 
C 2253 2368 2246 2214 2227 2074 
C 2093 1971 1875 1894 1651 1894 
C 1114 1894 794 2362 794 2925 
C 794 3302 973 3853 1459 3853 
L 1466 3853 
z
" transform="scale(0.015625)"/>
       </defs>
       <use xlink:href="#MinionPro-Regular-35"/>
       <use xlink:href="#MinionPro-Regular-39" x="47.999985"/>
       <use xlink:href="#MinionPro-Regular-30" x="95.999969"/>
      </g>
     </g>
    </g>
    <g id="ytick_2">
     <g id="line2d_7">
      <g>
       <use xlink:href="#m317d2c74ac" x="108" y="411.84" style="stroke: #000000; stroke-width: 0.8"/>
      </g>
     </g>
     <g id="text_8">
      <!-- 600 -->
      <g transform="translate(83.72 416.112188) scale(0.12 -0.12)">
       <defs>
        <path id="MinionPro-Regular-36" d="M 877 2195 
C 1069 3085 1664 3488 2054 3674 
C 2291 3782 2541 3859 2752 3898 
L 2707 4102 
C 2451 4058 2144 3987 1888 3898 
C 1210 3648 237 2925 237 1523 
C 237 538 800 -77 1549 -77 
C 2317 -77 2861 570 2861 1331 
C 2861 1990 2394 2515 1709 2515 
C 1581 2515 1446 2470 1306 2406 
L 877 2195 
z
M 1459 2157 
C 2042 2157 2310 1632 2310 1101 
C 2310 678 2157 141 1658 141 
C 1133 141 806 768 806 1536 
C 806 1702 813 1856 845 1978 
C 998 2061 1216 2157 1453 2157 
L 1459 2157 
z
" transform="scale(0.015625)"/>
       </defs>
       <use xlink:href="#MinionPro-Regular-36"/>
       <use xlink:href="#MinionPro-Regular-30" x="47.999985"/>
       <use xlink:href="#MinionPro-Regular-30" x="95.999969"/>
      </g>
     </g>
    </g>
    <g id="ytick_3">
     <g id="line2d_8">
      <g>
       <use xlink:href="#m317d2c74ac" x="108" y="331.2" style="stroke: #000000; stroke-width: 0.8"/>
      </g>
     </g>
     <g id="text_9">
      <!-- 610 -->
      <g transform="translate(83.72 335.472187) scale(0.12 -0.12)">
       <defs>
        <path id="MinionPro-Regular-31" d="M 2458 0 
L 2458 173 
C 1875 218 1837 269 1837 730 
L 1837 4064 
C 1485 3923 1107 3802 698 3731 
L 698 3584 
L 1005 3571 
C 1286 3558 1312 3526 1312 3194 
L 1312 730 
C 1312 269 1280 218 698 173 
L 698 0 
L 2458 0 
z
" transform="scale(0.015625)"/>
       </defs>
       <use xlink:href="#MinionPro-Regular-36"/>
       <use xlink:href="#MinionPro-Regular-31" x="47.999985"/>
       <use xlink:href="#MinionPro-Regular-30" x="95.999969"/>
      </g>
     </g>
    </g>
    <g id="ytick_4">
     <g id="line2d_9">
      <g>
       <use xlink:href="#m317d2c74ac" x="108" y="250.56" style="stroke: #000000; stroke-width: 0.8"/>
      </g>
     </g>
     <g id="text_10">
      <!-- 620 -->
      <g transform="translate(83.72 254.832187) scale(0.12 -0.12)">
       <use xlink:href="#MinionPro-Regular-36"/>
       <use xlink:href="#MinionPro-Regular-32" x="47.999985"/>
       <use xlink:href="#MinionPro-Regular-30" x="95.999969"/>
      </g>
     </g>
    </g>
    <g id="ytick_5">
     <g id="line2d_10">
      <g>
       <use xlink:href="#m317d2c74ac" x="108" y="169.92" style="stroke: #000000; stroke-width: 0.8"/>
      </g>
     </g>
     <g id="text_11">
      <!-- 630 -->
      <g transform="translate(83.72 174.192188) scale(0.12 -0.12)">
       <use xlink:href="#MinionPro-Regular-36"/>
       <use xlink:href="#MinionPro-Regular-33" x="47.999985"/>
       <use xlink:href="#MinionPro-Regular-30" x="95.999969"/>
      </g>
     </g>
    </g>
    <g id="ytick_6">
     <g id="line2d_11">
      <g>
       <use xlink:href="#m317d2c74ac" x="108" y="89.28" style="stroke: #000000; stroke-width: 0.8"/>
      </g>
     </g>
     <g id="text_12">
      <!-- 640 -->
      <g transform="translate(83.72 93.552187) scale(0.12 -0.12)">
       <use xlink:href="#MinionPro-Regular-36"/>
       <use xlink:href="#MinionPro-Regular-34" x="47.999985"/>
       <use xlink:href="#MinionPro-Regular-30" x="95.999969"/>
      </g>
     </g>
    </g>
    <g id="text_13">
     <!-- Level (masl) -->
     <g transform="translate(75.88 330.0875) rotate(-90) scale(0.16 -0.16)">
      <defs>
       <path id="MinionPro-Regular-4c" d="M 3168 1043 
C 3072 749 2950 544 2842 416 
C 2694 250 2477 218 2125 218 
C 1856 218 1638 230 1510 301 
C 1395 365 1363 493 1363 838 
L 1363 3366 
C 1363 3910 1421 3942 1926 3981 
L 1926 4160 
L 256 4160 
L 256 3981 
C 774 3942 819 3910 819 3366 
L 819 806 
C 819 262 768 218 230 179 
L 230 0 
L 3130 0 
C 3187 198 3322 806 3360 1005 
L 3168 1043 
z
" transform="scale(0.015625)"/>
       <path id="MinionPro-Regular-65" d="M 2426 678 
C 2195 461 1952 358 1696 358 
C 1248 358 749 717 742 1587 
C 1504 1613 2304 1677 2413 1696 
C 2528 1722 2560 1773 2560 1901 
C 2560 2400 2131 2874 1600 2874 
L 1594 2874 
C 1267 2874 922 2701 659 2406 
C 397 2118 237 1728 237 1286 
C 237 563 698 -77 1485 -77 
C 1683 -77 2125 38 2528 544 
L 2426 678 
z
M 1446 2637 
C 1798 2637 2016 2330 2010 1997 
C 2010 1907 1971 1869 1856 1869 
C 1485 1856 1133 1850 774 1850 
C 870 2368 1152 2637 1440 2637 
L 1446 2637 
z
" transform="scale(0.015625)"/>
       <path id="MinionPro-Regular-76" d="M 3053 2797 
L 1914 2797 
L 1914 2637 
C 2278 2592 2317 2522 2221 2214 
C 2080 1798 1875 1216 1651 685 
C 1466 1146 1210 1818 1043 2266 
C 941 2541 954 2592 1299 2637 
L 1299 2797 
L -13 2797 
L -13 2637 
C 333 2586 384 2541 531 2170 
C 832 1427 1126 698 1414 -70 
L 1587 -70 
C 1939 883 2278 1670 2490 2150 
C 2662 2534 2720 2592 3053 2637 
L 3053 2797 
z
" transform="scale(0.015625)"/>
       <path id="MinionPro-Regular-6c" d="M 1523 0 
L 1523 166 
C 1114 205 1062 243 1062 666 
L 1062 4557 
C 845 4480 448 4371 115 4333 
L 115 4179 
C 518 4147 557 4128 557 3693 
L 557 666 
C 557 243 499 205 96 166 
L 96 0 
L 1523 0 
z
" transform="scale(0.015625)"/>
       <path id="MinionPro-Regular-20" transform="scale(0.015625)"/>
       <path id="MinionPro-Regular-28" d="M 1920 -941 
C 1286 -403 915 627 915 1728 
C 915 2829 1280 3859 1920 4390 
L 1805 4538 
C 870 3904 448 2880 448 1734 
L 448 1728 
C 448 576 870 -454 1805 -1082 
L 1920 -941 
z
" transform="scale(0.015625)"/>
       <path id="MinionPro-Regular-6d" d="M 5094 0 
L 5094 166 
C 4730 205 4678 230 4678 659 
L 4678 1894 
C 4678 2522 4365 2874 3866 2874 
C 3686 2874 3520 2797 3386 2707 
C 3226 2611 3040 2490 2854 2349 
C 2726 2682 2451 2874 2144 2874 
C 1939 2874 1786 2803 1619 2701 
C 1427 2579 1286 2464 1152 2374 
L 1152 2893 
C 870 2765 544 2682 262 2630 
L 262 2483 
C 634 2426 653 2394 653 1984 
L 653 659 
C 653 243 595 205 173 166 
L 173 0 
L 1523 0 
L 1523 166 
C 1210 205 1158 243 1158 659 
L 1158 2163 
C 1350 2323 1600 2496 1856 2496 
C 2246 2496 2413 2234 2413 1760 
L 2413 659 
C 2413 237 2355 205 1958 166 
L 1958 0 
L 3328 0 
L 3328 166 
C 2976 205 2918 243 2918 646 
L 2918 1894 
C 2918 2016 2912 2086 2899 2163 
C 3142 2368 3386 2496 3616 2496 
C 4019 2496 4179 2208 4179 1754 
L 4179 685 
C 4179 230 4109 205 3731 166 
L 3731 0 
L 5094 0 
z
" transform="scale(0.015625)"/>
       <path id="MinionPro-Regular-29" d="M 1760 1728 
C 1760 2880 1363 3898 410 4538 
L 288 4390 
C 928 3866 1299 2829 1299 1728 
C 1299 627 941 -397 288 -941 
L 410 -1082 
C 1363 -435 1760 576 1760 1722 
L 1760 1728 
z
" transform="scale(0.015625)"/>
      </defs>
      <use xlink:href="#MinionPro-Regular-4c"/>
      <use xlink:href="#MinionPro-Regular-65" x="53.799988"/>
      <use xlink:href="#MinionPro-Regular-76" x="96.299973"/>
      <use xlink:href="#MinionPro-Regular-65" x="142.59996"/>
      <use xlink:href="#MinionPro-Regular-6c" x="185.099945"/>
      <use xlink:href="#MinionPro-Regular-20" x="210.399933"/>
      <use xlink:href="#MinionPro-Regular-28" x="233.09993"/>
      <use xlink:href="#MinionPro-Regular-6d" x="267.699921"/>
      <use xlink:href="#MinionPro-Regular-61" x="349.599915"/>
      <use xlink:href="#MinionPro-Regular-73" x="393.499908"/>
      <use xlink:href="#MinionPro-Regular-6c" x="430.199905"/>
      <use xlink:href="#MinionPro-Regular-29" x="455.499893"/>
     </g>
    </g>
   </g>
   <g id="line2d_12">
    <path d="M 138.436364 486.975099 
L 140.972727 484.306587 
L 143.509091 482.985162 
L 146.045455 483.648341 
L 148.581818 481.231375 
L 151.118182 461.801143 
L 153.654545 381.696075 
L 156.190909 276.034071 
L 158.727273 200.383371 
L 161.263636 167.087367 
L 163.8 174.944053 
L 166.336364 208.195928 
L 168.872727 207.244965 
L 173.945455 206.925259 
L 176.481818 207.219942 
L 179.018182 206.357164 
L 181.554545 196.963678 
L 184.090909 158.503759 
L 186.627273 102.722627 
L 189.163636 89.28 
L 191.7 98.145825 
L 194.236364 121.697085 
L 196.772727 158.939632 
L 201.845455 164.48464 
L 204.381818 166.673378 
L 206.918182 167.289904 
L 209.454545 166.678304 
L 211.990909 162.437523 
L 214.527273 137.568183 
L 217.063636 109.628173 
L 219.6 93.42083 
L 222.136364 107.564764 
L 224.672727 125.478835 
L 227.209091 161.79965 
L 229.745455 162.710554 
L 232.281818 165.243531 
L 234.818182 166.573086 
L 237.354545 167.590941 
L 239.890909 167.539124 
L 242.427273 161.125166 
L 244.963636 138.707157 
L 247.5 104.725206 
L 250.036364 89.28 
L 255.109091 125.991792 
L 257.645455 164.599709 
L 260.181818 164.369442 
L 262.718182 165.941483 
L 265.254545 167.716239 
L 267.790909 168.003996 
L 270.327273 167.213227 
L 272.863636 163.946515 
L 275.4 146.689625 
L 277.936364 114.234773 
L 280.472727 106.906709 
L 283.009091 108.62509 
L 285.545455 127.622993 
L 288.081818 167.153057 
L 290.618182 166.100041 
L 293.154545 166.718026 
L 295.690909 168.144946 
L 298.227273 168.109195 
L 300.763636 167.103329 
L 303.3 164.001375 
L 305.836364 136.521345 
L 308.372727 97.447974 
L 310.909091 96.139965 
L 313.445455 100.361731 
L 315.981818 125.743605 
L 318.518182 164.382408 
L 321.054545 165.60435 
L 323.590909 166.261702 
L 326.127273 167.542423 
L 328.663636 168.289845 
L 331.2 167.682775 
L 333.736364 161.458584 
L 336.272727 141.006628 
L 338.809091 89.28 
L 341.345455 89.28 
L 343.881818 106.904713 
L 346.418182 128.494127 
L 348.954545 166.726 
L 351.490909 166.388981 
L 354.027273 167.367533 
L 356.563636 168.580389 
L 359.1 169.611688 
L 361.636364 168.24976 
L 364.172727 161.489592 
L 366.709091 132.995035 
L 369.245455 89.28 
L 374.318182 89.28 
L 376.854545 114.317827 
L 379.390909 153.394259 
L 381.927273 159.21587 
L 384.463636 162.526337 
L 387 165.545547 
L 389.536364 167.102832 
L 392.072727 166.360357 
L 394.609091 160.278222 
L 397.145455 134.171533 
L 399.681818 100.560847 
L 402.218182 96.421347 
L 404.754545 101.671122 
L 407.290909 125.804616 
L 409.827273 164.871714 
L 412.363636 165.514038 
L 414.9 166.945125 
L 417.436364 168.158392 
L 419.972727 168.966801 
L 422.509091 168.272945 
L 425.045455 162.179615 
L 427.581818 136.192841 
L 430.118182 106.588627 
L 432.654545 99.81662 
L 435.190909 102.822256 
L 437.727273 126.439202 
L 440.263636 163.212368 
L 442.8 164.308405 
L 445.336364 165.989021 
L 450.409091 168.104384 
L 452.945455 167.967837 
L 455.481818 162.813726 
L 458.018182 142.930515 
L 460.554545 96.324559 
L 463.090909 96.086174 
L 465.627273 102.132173 
L 468.163636 122.606657 
L 470.7 157.903279 
L 473.236364 161.633551 
L 475.772727 164.763625 
L 478.309091 167.004869 
L 480.845455 168.209767 
L 483.381818 167.593132 
L 485.918182 163.385503 
L 488.454545 146.693076 
L 490.990909 91.031121 
L 493.527273 91.170382 
L 496.063636 111.531335 
L 498.6 130.197086 
L 501.136364 166.664415 
L 503.672727 166.750133 
L 506.209091 167.108957 
L 511.281818 169.179626 
L 513.818182 168.675496 
L 516.354545 162.57918 
L 518.890909 143.400063 
L 521.427273 107.547615 
L 523.963636 89.28 
L 526.5 102.292162 
L 529.036364 125.088764 
L 531.572727 165.303319 
L 534.109091 165.735515 
L 536.645455 166.633567 
L 539.181818 167.895921 
L 541.718182 168.314434 
L 544.254545 167.514631 
L 546.790909 162.869293 
L 549.327273 143.710498 
L 551.863636 99.885713 
L 554.4 92.58512 
L 556.936364 104.560676 
L 559.472727 125.569661 
L 562.009091 162.881717 
L 564.545455 164.904539 
L 567.081818 165.810979 
L 569.618182 167.069252 
L 572.154545 167.651462 
L 574.690909 167.455659 
L 577.227273 164.237295 
L 579.763636 140.782333 
L 582.3 110.9176 
L 584.836364 100.105226 
L 587.372727 102.801213 
L 589.909091 122.729456 
L 592.445455 157.937754 
L 594.981818 161.311736 
L 600.054545 166.513448 
L 602.590909 167.665296 
L 605.127273 167.202007 
L 607.663636 162.148166 
L 610.2 134.166039 
L 612.736364 91.384605 
L 615.272727 94.961762 
L 617.809091 111.14391 
L 620.345455 131.249915 
L 622.881818 168.928335 
L 625.418182 167.625001 
L 627.954545 167.567373 
L 630.490909 168.475161 
L 633.027273 168.481442 
L 635.563636 166.926179 
L 638.1 163.345276 
L 640.636364 144.871259 
L 643.172727 89.28 
L 645.709091 93.21629 
L 648.245455 99.328855 
L 650.781818 121.993169 
L 653.318182 159.446103 
L 655.854545 161.495913 
L 660.927273 166.84703 
L 663.463636 167.793598 
L 666 167.354567 
L 668.536364 162.646235 
L 671.072727 133.396725 
L 673.609091 97.026943 
L 676.145455 89.28 
L 678.681818 99.254216 
L 681.218182 124.416169 
L 683.754545 161.440392 
L 686.290909 164.178522 
L 688.827273 166.219958 
L 691.363636 167.400566 
L 693.9 168.392373 
L 696.436364 167.287995 
L 698.972727 164.184563 
L 701.509091 147.204605 
L 704.045455 95.532292 
L 706.581818 89.28 
L 709.118182 100.919525 
L 711.654545 125.37731 
L 714.190909 163.866946 
L 716.727273 164.475628 
L 721.8 167.437156 
L 724.336364 167.982341 
L 726.872727 166.935857 
L 729.409091 160.913748 
L 731.945455 131.978647 
L 734.481818 92.911989 
L 737.018182 92.741297 
L 739.554545 100.518976 
L 742.090909 125.62483 
L 744.627273 163.417988 
L 744.627273 163.417988 
" clip-path="url(#p098282fb41)" style="fill: none; stroke: #41ab5d; stroke-width: 4; stroke-linecap: square"/>
   </g>
   <g id="LineCollection_1">
    <path d="M 138.436364 492.48 
L 747.163636 492.48 
" clip-path="url(#p098282fb41)" style="fill: none; stroke-dasharray: 3,4.95; stroke-dashoffset: 0; stroke: #c0c0c0; stroke-width: 3"/>
   </g>
   <g id="LineCollection_2">
    <path d="M 138.436364 89.28 
L 747.163636 89.28 
" clip-path="url(#p098282fb41)" style="fill: none; stroke-dasharray: 3,4.95; stroke-dashoffset: 0; stroke: #c0c0c0; stroke-width: 3"/>
   </g>
   <g id="patch_3">
    <path d="M 108 512.64 
L 108 69.12 
" style="fill: none; stroke: #000000; stroke-width: 0.8; stroke-linejoin: miter; stroke-linecap: square"/>
   </g>
   <g id="patch_4">
    <path d="M 777.6 512.64 
L 777.6 69.12 
" style="fill: none; stroke: #000000; stroke-width: 0.8; stroke-linejoin: miter; stroke-linecap: square"/>
   </g>
   <g id="patch_5">
    <path d="M 108 512.64 
L 777.6 512.64 
" style="fill: none; stroke: #000000; stroke-width: 0.8; stroke-linejoin: miter; stroke-linecap: square"/>
   </g>
   <g id="patch_6">
    <path d="M 108 69.12 
L 777.6 69.12 
" style="fill: none; stroke: #000000; stroke-width: 0.8; stroke-linejoin: miter; stroke-linecap: square"/>
   </g>
   <g id="legend_1">
    <g id="patch_7">
     <path d="M 656.761875 506.64 
L 769.2 506.64 
Q 771.6 506.64 771.6 504.24 
L 771.6 470.59125 
Q 771.6 468.19125 769.2 468.19125 
L 656.761875 468.19125 
Q 654.361875 468.19125 654.361875 470.59125 
L 654.361875 504.24 
Q 654.361875 506.64 656.761875 506.64 
z
" style="fill: #ffffff; opacity: 0.8; stroke: #cccccc; stroke-linejoin: miter"/>
    </g>
    <g id="line2d_13">
     <path d="M 659.161875 477.335625 
L 671.161875 477.335625 
L 683.161875 477.335625 
" style="fill: none; stroke: #41ab5d; stroke-width: 4; stroke-linecap: square"/>
    </g>
    <g id="text_14">
     <!-- GERD Level -->
     <g transform="translate(692.761875 481.535625) scale(0.12 -0.12)">
      <defs>
       <path id="MinionPro-Regular-47" d="M 4429 1926 
L 2803 1926 
L 2803 1754 
C 3430 1702 3475 1664 3475 1203 
L 3475 659 
C 3475 390 3398 314 3270 243 
C 3130 173 2931 128 2714 128 
C 1478 128 934 1203 934 2125 
C 934 3309 1651 4026 2630 4026 
C 3238 4026 3725 3814 3878 3034 
L 4058 3072 
C 4006 3494 3974 3846 3955 4070 
C 3750 4115 3258 4256 2726 4256 
C 1472 4256 282 3533 282 2048 
C 282 781 1222 -96 2630 -96 
C 3142 -96 3667 45 4064 141 
C 4026 314 4019 518 4019 742 
L 4019 1286 
C 4019 1664 4045 1696 4429 1754 
L 4429 1926 
z
" transform="scale(0.015625)"/>
       <path id="MinionPro-Regular-45" d="M 3302 1037 
C 3219 781 3098 563 2989 435 
C 2848 269 2669 218 2182 218 
C 1862 218 1638 224 1517 301 
C 1402 384 1363 518 1363 819 
L 1363 2029 
L 1971 2029 
C 2528 2029 2573 1990 2656 1530 
L 2842 1530 
L 2842 2758 
L 2656 2758 
C 2573 2330 2541 2278 1965 2278 
L 1363 2278 
L 1363 3731 
C 1363 3923 1376 3936 1574 3936 
L 2061 3936 
C 2522 3936 2694 3891 2784 3757 
C 2867 3616 2931 3475 2989 3206 
L 3174 3238 
C 3155 3565 3123 4000 3123 4160 
L 269 4160 
L 269 3981 
C 768 3936 819 3917 819 3341 
L 819 794 
C 819 275 768 224 186 179 
L 186 0 
L 3270 0 
C 3328 198 3456 800 3494 1011 
L 3302 1037 
z
" transform="scale(0.015625)"/>
       <path id="MinionPro-Regular-52" d="M 4038 115 
C 3898 154 3750 224 3578 416 
C 3418 582 3290 749 3059 1082 
C 2867 1370 2598 1798 2490 2010 
C 2963 2214 3302 2554 3302 3104 
C 3302 3488 3136 3776 2880 3942 
C 2637 4102 2323 4160 1856 4160 
L 269 4160 
L 269 3981 
C 768 3936 819 3917 819 3373 
L 819 800 
C 819 256 762 218 237 179 
L 237 0 
L 1920 0 
L 1920 179 
C 1408 218 1350 256 1350 800 
L 1350 1818 
L 1555 1818 
C 1888 1818 1997 1741 2106 1562 
C 2298 1248 2528 851 2752 538 
C 3040 122 3309 -19 3789 -45 
C 3866 -51 3936 -51 4013 -51 
L 4038 115 
z
M 1350 2029 
L 1350 3603 
C 1350 3776 1376 3853 1421 3885 
C 1472 3923 1581 3949 1766 3949 
C 2253 3949 2707 3693 2707 3002 
C 2707 2656 2605 2400 2355 2208 
C 2195 2080 1984 2029 1658 2029 
L 1350 2029 
z
" transform="scale(0.015625)"/>
       <path id="MinionPro-Regular-44" d="M 269 4160 
L 269 3974 
C 762 3936 813 3910 813 3360 
L 813 794 
C 813 250 762 211 211 173 
L 211 0 
L 1728 0 
C 2515 0 3149 160 3629 531 
C 4122 902 4416 1472 4416 2240 
C 4416 2842 4192 3309 3878 3616 
C 3482 3994 2880 4160 2067 4160 
L 269 4160 
z
M 1363 3501 
C 1363 3750 1382 3821 1446 3866 
C 1510 3910 1677 3942 1946 3942 
C 2374 3942 2746 3866 3034 3680 
C 3546 3379 3789 2810 3789 2150 
C 3789 1126 3238 230 2042 230 
C 1574 230 1363 352 1363 838 
L 1363 3501 
z
" transform="scale(0.015625)"/>
      </defs>
      <use xlink:href="#MinionPro-Regular-47"/>
      <use xlink:href="#MinionPro-Regular-45" x="71.499985"/>
      <use xlink:href="#MinionPro-Regular-52" x="128.299973"/>
      <use xlink:href="#MinionPro-Regular-44" x="190.399963"/>
      <use xlink:href="#MinionPro-Regular-20" x="263.899948"/>
      <use xlink:href="#MinionPro-Regular-4c" x="286.599945"/>
      <use xlink:href="#MinionPro-Regular-65" x="340.399933"/>
      <use xlink:href="#MinionPro-Regular-76" x="382.899918"/>
      <use xlink:href="#MinionPro-Regular-65" x="429.199905"/>
      <use xlink:href="#MinionPro-Regular-6c" x="471.69989"/>
     </g>
    </g>
    <g id="line2d_14">
     <path d="M 659.161875 494.76 
L 683.161875 494.76 
" style="fill: none; stroke-dasharray: 3,4.95; stroke-dashoffset: 0; stroke: #c0c0c0; stroke-width: 3"/>
    </g>
    <g id="text_15">
     <!-- Min/Max Level -->
     <g transform="translate(692.761875 498.96) scale(0.12 -0.12)">
      <defs>
       <path id="MinionPro-Regular-69" d="M 864 3430 
C 1050 3430 1190 3584 1190 3757 
C 1190 3949 1050 4090 870 4090 
C 698 4090 544 3949 544 3757 
C 544 3584 698 3430 864 3430 
z
M 1613 0 
L 1613 166 
C 1203 205 1158 243 1158 678 
L 1158 2886 
C 877 2771 576 2688 250 2637 
L 250 2483 
C 634 2426 653 2394 653 2003 
L 653 678 
C 653 243 608 205 205 166 
L 205 0 
L 1613 0 
z
" transform="scale(0.015625)"/>
       <path id="MinionPro-Regular-2f" d="M 1907 4256 
L 1549 4256 
L 160 -282 
L 518 -282 
L 1907 4256 
z
" transform="scale(0.015625)"/>
       <path id="MinionPro-Regular-78" d="M 3040 0 
L 3040 166 
C 2650 218 2573 275 2336 640 
L 1709 1587 
C 1920 1901 2080 2131 2208 2291 
C 2438 2560 2522 2592 2912 2637 
L 2912 2797 
L 1747 2797 
L 1747 2637 
C 2022 2605 2067 2573 1952 2368 
C 1837 2157 1709 1958 1581 1773 
L 1203 2362 
C 1088 2541 1107 2598 1382 2637 
L 1382 2797 
L 102 2797 
L 102 2637 
C 454 2592 538 2541 730 2227 
L 1286 1357 
C 1101 1069 928 813 749 589 
C 493 269 422 218 26 166 
L 26 0 
L 1222 0 
L 1222 166 
C 890 218 877 275 998 493 
C 1120 723 1267 960 1408 1171 
L 1882 422 
C 1990 250 1939 198 1664 166 
L 1664 0 
L 3040 0 
z
" transform="scale(0.015625)"/>
      </defs>
      <use xlink:href="#MinionPro-Regular-4d"/>
      <use xlink:href="#MinionPro-Regular-69" x="89.099991"/>
      <use xlink:href="#MinionPro-Regular-6e" x="115.899979"/>
      <use xlink:href="#MinionPro-Regular-2f" x="170.599976"/>
      <use xlink:href="#MinionPro-Regular-4d" x="203.699966"/>
      <use xlink:href="#MinionPro-Regular-61" x="292.799957"/>
      <use xlink:href="#MinionPro-Regular-78" x="336.699951"/>
      <use xlink:href="#MinionPro-Regular-20" x="383.899948"/>
      <use xlink:href="#MinionPro-Regular-4c" x="406.599945"/>
      <use xlink:href="#MinionPro-Regular-65" x="460.399933"/>
      <use xlink:href="#MinionPro-Regular-76" x="502.899918"/>
      <use xlink:href="#MinionPro-Regular-65" x="549.199905"/>
      <use xlink:href="#MinionPro-Regular-6c" x="591.69989"/>
     </g>
    </g>
   </g>
  </g>
 </g>
 <defs>
  <clipPath id="p098282fb41">
   <rect x="108" y="69.12" width="669.6" height="443.52"/>
  </clipPath>
 </defs>
</svg>
